<?xml version="1.0" encoding="UTF-8"?>
<svg id="Capa_1" xmlns="http://www.w3.org/2000/svg" version="1.1" xmlns:serif="http://www.serif.com/" viewBox="0 0 456 456">
  <!-- Generator: Adobe Illustrator 30.2.1, SVG Export Plug-In . SVG Version: 2.1.1 Build 1)  -->
  <defs>
    <style>
      .st0 {
        fill: #fff;
      }
    </style>
  </defs>
  <path class="st0" d="M174.81,371.31s15.5,2.31,20.33-10.57c2.03-5.41,11.84-56.21,22.48-107.15,14.7-70.38,30.62-151.43,30.96-159.21.97,5.4-2.26,49.48-5.94,77.29l25.9-21.6s-1.34-43.21-18.65-68.7c0,0-8.67,8.79-23.08,21.74-13.28,11.93-31.62,26.52-49.88,42.92-37.29,33.49-68.2,75.97-57.06,128.57,4.01,18.94,13.6,31.99,23.35,41.61,20.3,20.05,44.68,23.67,44.68,23.67,0,0-6.31,18.65-13.08,31.43Z"/>
  <circle class="st0" cx="316.57" cy="280.72" r="4.04"/>
  <circle class="st0" cx="304.08" cy="284.46" r="3.42"/>
  <circle class="st0" cx="304.67" cy="298.55" r="2.57"/>
  <path class="st0" d="M266.56,240.11c-.09-4.95.05-9,.56-13.69-4.43-1.72-6.8-6.26-4.7-10.65,1.89-3.94,7.39-5.45,11.06-2.46,2.15,1.75,2.81,4.34,2.48,7.11-.29,2.41-2.13,4.41-4.9,5.73-.28,3.33-.34,6.73-.2,10.83l14.58-11.71-.05-16.1c-2.79-1.24-4.49-3.29-4.16-5.96.32-2.59,2.5-4.6,5.1-4.97s4.64,1.63,5.63,3.69c1.48,3.07-1.07,4.9-2.63,6.97-.64,4.12-.34,8.52-.13,13.37l7.81-6.47v-32.56c-2.5-1.35-3.52-3.12-3.26-5.76.21-2.16,1.96-4.09,4.48-4.2,2.35-.1,4.52,1.32,5.34,3.45.96,2.49-.45,4.56-2.83,6.17l-.04,29.91,7.34-6.32v-62.72s5.79-5.65,5.79-5.65l-.05-13.85c-2.53-1.62-5.19-3.7-5.14-6.96.04-2.77,1.97-5.32,4.05-6.28,2.58-1.19,5.87-.92,7.81,1.17s2.48,5.59,1.16,8.32c-.59,1.22-2.24,2.35-3.58,3.31l-.08,15.87-6.27,6.14v42.01s5.02-4.55,5.02-4.55l6.49-5.88-.03-19.31c-2.44-1.61-4.32-3.91-3.52-6.77.71-2.56,2.74-4.3,5.57-4.48s4.87,1.69,5.71,4.06c1.13,3.16-.73,5.37-3.42,7.12l-.11,21.1-15.68,13.9-.04,15.37-12.34,10.6-26.7,22.18c-15.36,12.76-31.69,23.51-48.48,34.6l1.51-7,27.03-18.63,13.79-10.04ZM314.94,114.32c-1.95.54-2.58,2.74-2.04,4.17.37.98,2.39,1.71,3.66,1.36s2.35-2.17,1.91-3.57c-.42-1.31-1.84-2.43-3.52-1.97ZM326.26,154.72c1.18-.61,1.94-2.09,1.64-2.82-.32-.78-1.6-1.7-2.39-1.61-1.7.2-2.36,1.72-2.28,2.88.07,1.01,1.71,2.24,3.03,1.55ZM298.3,176.19c-1.02.47-1.98,1.94-1.64,2.65.42.89,1.83,1.59,2.59,1.34.98-.32,1.72-1.76,1.43-2.64-.21-.66-1.74-1.65-2.38-1.36ZM286.29,201.46c-1.35.65-2.23,2.1-1.64,3.04.56.89,2.01,1.63,2.78,1.26,1.12-.53,1.98-1.98,1.52-2.89-.42-.84-1.93-1.76-2.67-1.41ZM268.57,215.84c-1.72.18-3.29,2.06-3.03,3.65.2,1.25,2.12,2.9,3.32,2.8,1.95-.16,3.05-1.55,3.03-3.29-.01-1.63-.96-3.4-3.32-3.16Z"/>
  <path class="st0" d="M280.25,271.95l9.91-6.61v-7.39s16.77-13.57,16.77-13.57l-.11-11.13c-2.13-1.26-4.18-2.72-4.51-4.99-.43-2.96.3-5.76,2.44-7.29,2.21-1.57,5.07-1.78,7.48-.42s3.54,3.9,3.31,7.17c-.18,2.47-1.86,3.9-4.39,4.84-.47,2.75-.56,5.94-.23,9.05l11.35-9.31.03-26.36c-3.01-1.15-4.73-3.91-4.16-6.89.52-2.71,2.83-4.96,5.48-5.19,2.92-.26,5.69,1.77,6.36,4.25.88,3.25-.19,6.21-3.52,7.63l.05,9.43,9.43-8.15-.07-16.65c-2.45-1.01-4.69-3-4.67-5.65.03-2.94,1.73-5.6,3.92-6.52,2.99-1.26,6.45-.57,8.08,2.11,1.02,1.67,1.4,3.76.96,5.75-.36,1.61-1.85,3.16-4.01,4.11l-.04,18.55-13.57,11.52-.16,14.14-32.42,25.49s-.12,5.34-.09,8.29c-5.66,3.9-11.05,7.75-16.97,11.39-19.69,12.09-39.55,22.93-60.19,33.78l1.34-6.93,57.94-31.48.03-12.71c-4.63-1.33-6.45-6.05-4.65-10.12s7.54-5.6,11.06-2.58c2.19,1.88,3.52,4.31,2.87,7.11-.52,2.28-2.27,4.36-5.09,5.29l.03,10.04ZM339.54,186.38c1.71-.9,1.3-3.05.21-4.11s-2.95-1.2-3.89-.15-1.1,2.7-.31,3.65,2.79,1.24,3.99.61ZM323.28,197.48c-1.54.42-1.89,2.32-1.48,3.54.32.97,1.89,1.69,3.16,1.38,1.1-.27,1.75-1.91,1.44-3.2-.23-.91-1.68-2.11-3.12-1.72ZM307.67,223.63c-2.05.99-2.06,3.05-1.33,4.49.55,1.08,2.5,1.38,3.87.9s2-2.53,1.28-3.98c-.48-.96-2.63-1.99-3.82-1.41ZM277.14,251.96c-2.22.78-2.59,2.98-1.93,4.62.57,1.44,2.28,2.06,4.06,1.43,1.42-.5,2.43-2.33,1.84-4.1-.42-1.27-2.29-2.55-3.97-1.96Z"/>
  <path class="st0" d="M268.14,173.84c-2.74-1.26-4.41-3.5-4.68-5.93-.3-2.63,1.2-5.13,3.53-6.57,3.57-2.22,7.95-.59,9.49,3.07s.09,7.85-4.15,9.21v19.44s9.52-8.49,9.52-8.49l.27-31.93c.01-1.53.05-3.1-1.21-3.91-2.67-1.71-3.02-4.83-1.14-7.18,1.46-1.82,3.44-2.7,5.67-2,2.05.64,3.45,2.45,3.77,4.81s-1.55,3.82-3.71,5.11l.03,18.21,12.06-11.02-.08-19.55c-2.2-1.28-3.25-2.9-3.3-4.84-.06-2.23,1.04-4.24,3.27-5.17,2.71-1.14,5.44.77,6.53,2.95,1.4,2.79-.17,5.4-2.69,7.09l-.04,21.27c-2.04,2.24-4.33,4.33-6.66,6.35l-9.08,7.9-.09,13.72-13.13,11.35-.04,2.98-20.58,16.81-19.24,15.11c.13-2.61.36-4.28.73-6.38l34.92-27.65.04-24.75ZM298.32,130c-1.05.69-1.54,2.31-1,3.07s2.08,1.13,2.78.72c1.01-.59,1.39-2.04.9-2.89-.37-.64-2.08-1.29-2.67-.9ZM284.43,146.18c1.01-.23,1.8-1.96,1.35-2.63-.61-.92-2.14-1.33-3.17-.64-.56.38-1.02,1.89-.82,2.51s1.71.97,2.63.77ZM272.41,169.04c.75-.77.56-2.87.04-3.63-.42-.61-1.73-1.46-2.47-1.26-1.18.32-2.33,1.52-2.43,2.37-.12,1.06.32,2.73,1.1,3.06.93.4,2.88.36,3.76-.54Z"/>
  <path class="st0" d="M214.72,325.99c-.05-2.45.41-4.55,1.02-6.9l43.88-23.22c15.88-8.4,30.48-18.3,45.52-28.04-1.5-2.53-1.71-4.68-.73-7.22.69-1.76,2.71-3.86,5.15-4.15s4.63.08,6.14,1.6c2.69,2.7,2.68,8.5-.57,11.17-1.84,1.51-4.28,1.56-6.65,1.43-15.13,10.2-30.02,20.23-46.07,29.07l-47.69,26.26Z"/>
  <path class="st0" d="M212.35,337.79c.01-2.01.46-4,.99-6.29l55.53-26.3c.3-3.06,2.08-4.92,4.19-5.73,2.69-1.04,5.24.23,6.62,2.07,1.69,2.25,1.32,5.08-.2,7.27-2.01,2.87-5.79,3.33-8.47.89l-58.66,28.09Z"/>
  <path class="st0" d="M220.32,294.62l1.12-7.16,22.48-13.1,10.42-6.31c.25-2.05.8-4.14,1.96-5.17,1.58-1.4,3.89-2.05,5.97-1.51,3.94,1.02,5.37,5.57,3.6,8.84-1.88,3.48-6.44,4.3-9.56,1.81l-36,22.6Z"/>
  <path class="st0" d="M235.06,217.32l.78-6.15,15.4-11.98.07-8.28c-2.44-1.35-4.49-3.21-5.16-5.93s.95-5.04,2.54-6.54c1.95-1.84,4.99-2.45,7.49-1.35,2.95,1.3,4.35,4.35,4.09,7.48-.22,2.67-1.97,4.8-4.8,5.43l.03,11.37-20.45,15.94ZM252.42,180.63c-1.81.63-2.54,2.6-2.01,4.06.44,1.2,2.27,2.26,3.5,1.79,1.66-.63,2.43-1.95,2.13-3.73-.2-1.21-1.9-2.72-3.62-2.12Z"/>
  <path class="st0" d="M228.37,254.22l1.07-6.44,14.73-10.54c-.37-2.47-.34-5.08,1.47-6.6,1.97-1.65,4.7-2,6.85-.51,2.31,1.6,2.23,4.4,1.68,6.68-.76,3.14-4.16,2.35-6.15,3.73l-19.65,13.67Z"/>
  <path class="st0" d="M295.11,298.11c-1.68,3.25-5.76,3.97-8.42,2.19-2.84-1.9-3.68-5.54-1.73-8.59,1.71-2.68,5.16-3.34,7.9-1.87s3.9,5.08,2.25,8.27Z"/>
  <path class="st0" d="M330.84,250.95c-1.6,2.66-4.76,3.6-7.16,2.28-2.74-1.51-3.87-4.27-2.53-7.31s4.82-4.1,7.74-2.6c2.48,1.27,3.59,4.88,1.94,7.62Z"/>
  <path class="st0" d="M295.27,245c-1.81.93-4.14.25-5.4-1.06-1.46-1.52-1.59-3.84-.64-5.45,1.19-2.02,3.16-2.94,5.71-2.32,1.88.45,3.05,2.21,3.2,3.85.19,2.19-.78,3.91-2.86,4.98Z"/>
  <path class="st0" d="M326.48,264.08c1.99-.7,3.69.59,4.3,2.2.57,1.52-.46,3.68-1.75,4.22-1.9.79-3.78-.16-4.35-1.48-.79-1.81-.42-4.15,1.8-4.94Z"/>
  <path class="st0" d="M333.44,231.97c1.05-.46,2.61.3,2.93,1.26.36,1.08-.05,2.72-1.29,3.29-.89.41-2.41-.35-3.16-1.47-.55-.82.21-2.51,1.52-3.09Z"/>
  <circle class="st0" cx="341.46" cy="221.6" r="4.82"/>
</svg>