<?xml version="1.0" encoding="UTF-8"?>
<svg id="Capa_1" xmlns="http://www.w3.org/2000/svg" version="1.1" xmlns:serif="http://www.serif.com/" viewBox="0 0 456 456">
  <!-- Generator: Adobe Illustrator 30.2.1, SVG Export Plug-In . SVG Version: 2.1.1 Build 1)  -->
  <defs>
    <style>
      .st0 {
        fill: #fff;
      }
    </style>
  </defs>
  <path class="st0" d="M174.63,368.96s14.48,2.16,19-9.88c1.9-5.05,11.06-52.53,21-100.13,13.74-65.77,28.61-141.51,28.94-148.79.91,5.05-2.12,46.24-5.55,72.23l24.2-20.19s-1.25-40.38-17.43-64.2c0,0-8.11,8.22-21.57,20.31-12.41,11.15-29.55,24.78-46.62,40.11-34.85,31.3-63.73,70.99-53.33,120.15,3.75,17.7,12.71,29.89,21.82,38.89,18.97,18.74,41.76,22.12,41.76,22.12,0,0-5.89,17.43-12.23,29.37Z"/>
  <circle class="st0" cx="307.11" cy="284.3" r="3.78"/>
  <circle class="st0" cx="295.44" cy="287.8" r="3.2"/>
  <circle class="st0" cx="295.99" cy="300.96" r="2.41"/>
  <path class="st0" d="M260.38,246.35c-.08-4.63.04-8.41.53-12.79-4.14-1.61-6.36-5.85-4.39-9.95,1.77-3.68,6.91-5.1,10.34-2.3,2.01,1.64,2.63,4.05,2.32,6.65-.27,2.25-1.99,4.12-4.58,5.36-.26,3.11-.32,6.29-.18,10.12l13.63-10.94-.05-15.05c-2.6-1.16-4.2-3.07-3.89-5.57s2.34-4.3,4.77-4.65,4.34,1.53,5.26,3.44c1.38,2.87-1,4.58-2.45,6.51-.6,3.85-.31,7.96-.12,12.49l7.3-6.04v-30.43c-2.33-1.26-3.29-2.92-3.04-5.39.2-2.02,1.84-3.83,4.19-3.93,2.2-.09,4.22,1.24,4.99,3.23.9,2.33-.42,4.26-2.64,5.77l-.03,27.95,6.86-5.9v-58.62s5.41-5.28,5.41-5.28l-.05-12.94c-2.36-1.52-4.85-3.46-4.8-6.5.04-2.59,1.84-4.97,3.79-5.87,2.41-1.11,5.49-.86,7.3,1.09s2.32,5.22,1.08,7.77c-.55,1.14-2.09,2.2-3.34,3.09l-.08,14.84-5.86,5.74v39.26s4.7-4.25,4.7-4.25l6.07-5.49-.03-18.05c-2.28-1.5-4.03-3.66-3.29-6.33.67-2.39,2.56-4.02,5.2-4.18s4.55,1.58,5.34,3.79c1.05,2.96-.68,5.02-3.19,6.66l-.1,19.72-14.65,12.99-.03,14.37-11.53,9.91-24.95,20.72c-14.36,11.92-29.61,21.97-45.3,32.33l1.42-6.54,25.26-17.41,12.89-9.38ZM305.58,128.79c-1.82.51-2.41,2.56-1.91,3.89.34.91,2.24,1.6,3.42,1.27s2.19-2.03,1.78-3.33c-.39-1.23-1.72-2.27-3.29-1.84ZM316.16,166.55c1.1-.57,1.81-1.96,1.53-2.64-.3-.72-1.5-1.59-2.23-1.51-1.59.19-2.2,1.61-2.13,2.69.06.95,1.6,2.09,2.83,1.45ZM290.04,186.61c-.95.44-1.85,1.81-1.53,2.48.4.83,1.71,1.48,2.42,1.25.91-.3,1.6-1.65,1.34-2.46-.2-.61-1.63-1.54-2.22-1.27ZM278.82,210.23c-1.26.61-2.08,1.96-1.53,2.84.52.83,1.88,1.52,2.6,1.18,1.04-.5,1.85-1.85,1.42-2.7-.39-.79-1.8-1.65-2.49-1.32ZM262.25,223.67c-1.61.17-3.07,1.93-2.84,3.41.19,1.17,1.98,2.71,3.11,2.61,1.83-.15,2.85-1.45,2.83-3.08-.01-1.52-.9-3.18-3.11-2.95Z"/>
  <path class="st0" d="M273.16,276.1l9.26-6.18v-6.9s15.67-12.68,15.67-12.68l-.1-10.4c-1.99-1.18-3.91-2.54-4.22-4.66-.4-2.77.28-5.38,2.28-6.81s4.74-1.67,6.99-.39,3.31,3.65,3.09,6.7c-.17,2.31-1.73,3.64-4.1,4.52-.44,2.57-.52,5.55-.22,8.45l10.6-8.7.03-24.64c-2.81-1.07-4.42-3.66-3.89-6.44.48-2.53,2.64-4.63,5.12-4.85,2.73-.24,5.32,1.65,5.94,3.97.82,3.04-.18,5.8-3.29,7.13l.05,8.81,8.82-7.62-.06-15.56c-2.29-.94-4.38-2.81-4.36-5.28.02-2.75,1.61-5.23,3.66-6.09,2.79-1.17,6.03-.53,7.56,1.97.95,1.57,1.31,3.52.89,5.37-.34,1.51-1.73,2.95-3.74,3.84l-.04,17.34-12.68,10.76-.15,13.21-30.29,23.82s-.11,4.99-.08,7.75c-5.29,3.65-10.33,7.25-15.86,10.65-18.4,11.3-36.96,21.43-56.25,31.56l1.25-6.48,54.15-29.41.03-11.88c-4.32-1.24-6.03-5.65-4.34-9.46,1.71-3.88,7.05-5.23,10.34-2.41,2.04,1.76,3.29,4.03,2.69,6.65-.49,2.13-2.12,4.08-4.76,4.94l.03,9.39ZM328.58,196.13c1.6-.84,1.22-2.85.19-3.84s-2.75-1.13-3.63-.14-1.02,2.52-.29,3.41,2.61,1.16,3.73.57ZM313.38,206.51c-1.43.39-1.77,2.17-1.39,3.31.3.9,1.76,1.58,2.96,1.29,1.02-.25,1.64-1.79,1.34-2.99-.21-.85-1.57-1.97-2.91-1.61ZM298.79,230.95c-1.92.93-1.93,2.85-1.25,4.2.51,1.01,2.34,1.29,3.62.84s1.87-2.37,1.2-3.72c-.44-.9-2.45-1.86-3.57-1.32ZM270.27,257.42c-2.07.73-2.42,2.78-1.8,4.32.54,1.34,2.13,1.92,3.79,1.34,1.33-.47,2.27-2.18,1.72-3.83-.4-1.19-2.14-2.38-3.71-1.83Z"/>
  <path class="st0" d="M261.85,184.41c-2.56-1.18-4.12-3.27-4.37-5.55-.28-2.46,1.12-4.79,3.3-6.14,3.33-2.07,7.43-.55,8.87,2.87s.08,7.34-3.88,8.61v18.16s8.9-7.93,8.9-7.93l.26-29.84c.01-1.43.05-2.9-1.13-3.65-2.5-1.6-2.83-4.52-1.06-6.71,1.37-1.7,3.21-2.52,5.29-1.87,1.91.6,3.22,2.29,3.52,4.5s-1.45,3.57-3.47,4.78l.02,17.02,11.27-10.29-.07-18.27c-2.05-1.2-3.03-2.71-3.08-4.53-.06-2.08.97-3.96,3.05-4.83,2.53-1.06,5.08.72,6.1,2.76,1.3,2.61-.16,5.04-2.51,6.62l-.04,19.88c-1.91,2.09-4.05,4.04-6.22,5.93l-8.49,7.38-.09,12.83-12.27,10.61-.04,2.79-19.23,15.71-17.98,14.12c.12-2.44.34-4,.68-5.96l32.63-25.84.04-23.13ZM290.05,143.45c-.98.64-1.44,2.16-.94,2.87s1.94,1.05,2.6.67c.95-.56,1.3-1.91.84-2.7-.35-.6-1.94-1.2-2.5-.84ZM277.08,158.57c.95-.21,1.68-1.83,1.26-2.46-.57-.86-2-1.25-2.96-.6-.52.35-.95,1.76-.76,2.34s1.6.91,2.46.72ZM265.85,179.93c.7-.72.52-2.68.04-3.39-.39-.57-1.62-1.37-2.31-1.18-1.11.3-2.18,1.42-2.27,2.21-.11.99.3,2.55,1.03,2.86.87.37,2.69.34,3.52-.5Z"/>
  <path class="st0" d="M211.93,326.6c-.05-2.29.38-4.25.95-6.45l41-21.7c14.84-7.85,28.49-17.1,42.54-26.2-1.4-2.36-1.6-4.38-.68-6.75.64-1.65,2.53-3.61,4.81-3.88s4.33.08,5.74,1.5c2.51,2.52,2.51,7.94-.53,10.44-1.72,1.41-4,1.46-6.21,1.33-14.14,9.53-28.05,18.91-43.05,27.17l-44.57,24.54Z"/>
  <path class="st0" d="M209.72,337.63c.01-1.87.43-3.74.93-5.88l51.89-24.58c.28-2.86,1.95-4.6,3.92-5.36,2.52-.98,4.89.21,6.19,1.93,1.58,2.11,1.24,4.75-.19,6.79-1.88,2.69-5.41,3.11-7.91.83l-54.82,26.25Z"/>
  <path class="st0" d="M217.16,297.29l1.05-6.69,21.01-12.25,9.74-5.9c.23-1.92.74-3.87,1.83-4.83,1.48-1.31,3.63-1.92,5.58-1.41,3.68.96,5.02,5.2,3.36,8.26-1.76,3.25-6.01,4.02-8.93,1.69l-33.64,21.12Z"/>
  <path class="st0" d="M230.94,225.05l.73-5.75,14.39-11.2.06-7.73c-2.28-1.26-4.2-3-4.82-5.54s.89-4.71,2.38-6.11c1.82-1.72,4.66-2.29,7-1.26,2.76,1.21,4.07,4.07,3.83,6.99-.21,2.49-1.84,4.49-4.48,5.08l.02,10.63-19.11,14.9ZM247.16,190.77c-1.69.59-2.37,2.43-1.88,3.79.41,1.12,2.12,2.11,3.27,1.67,1.55-.59,2.27-1.82,1.99-3.48-.19-1.13-1.78-2.54-3.39-1.98Z"/>
  <path class="st0" d="M224.69,259.54l1-6.02,13.77-9.85c-.35-2.31-.32-4.75,1.37-6.17,1.84-1.54,4.39-1.87,6.4-.47,2.16,1.5,2.09,4.11,1.57,6.25-.71,2.93-3.89,2.19-5.75,3.49l-18.37,12.78Z"/>
  <path class="st0" d="M287.06,300.55c-1.57,3.03-5.38,3.71-7.87,2.05-2.66-1.78-3.44-5.18-1.62-8.03,1.6-2.51,4.83-3.13,7.38-1.75s3.65,4.74,2.1,7.73Z"/>
  <path class="st0" d="M320.44,256.48c-1.5,2.49-4.45,3.37-6.69,2.13-2.56-1.41-3.62-3.99-2.36-6.83,1.2-2.71,4.5-3.83,7.24-2.43,2.32,1.19,3.35,4.56,1.81,7.12Z"/>
  <path class="st0" d="M287.21,250.92c-1.69.87-3.87.24-5.05-.99-1.36-1.42-1.49-3.59-.6-5.09,1.11-1.89,2.95-2.74,5.33-2.17,1.76.42,2.85,2.07,2.99,3.6.18,2.05-.73,3.65-2.67,4.65Z"/>
  <path class="st0" d="M316.37,268.74c1.86-.66,3.45.55,4.02,2.06.53,1.42-.43,3.44-1.64,3.94-1.77.74-3.53-.14-4.07-1.38-.74-1.69-.39-3.88,1.69-4.61Z"/>
  <path class="st0" d="M322.88,238.74c.99-.43,2.44.28,2.74,1.18.34,1.01-.05,2.54-1.2,3.07-.83.38-2.25-.33-2.95-1.37-.52-.77.19-2.35,1.42-2.88Z"/>
  <circle class="st0" cx="330.37" cy="229.05" r="4.51"/>
</svg>